<?xml version="1.0" encoding="iso-8859-1"?>
<!-- Generator: Adobe Illustrator 19.0.0, SVG Export Plug-In . SVG Version: 6.00 Build 0)  -->
<svg version="1.1" id="Capa_1" xmlns="http://www.w3.org/2000/svg" xmlns:xlink="http://www.w3.org/1999/xlink" x="0px" y="0px"
	 viewBox="0 0 512 512" style="enable-background:new 0 0 512 512;" xml:space="preserve">
<g>
	<g>
		<path d="M504.485,232.454h-56.611v-25.049h8.517c4.15,0,7.515-3.365,7.515-7.515v-32.063c0-4.15-3.365-7.515-7.515-7.515h-8.912
			c-3.768-35.983-34.279-64.125-71.244-64.125h-240.47c-36.964,0-67.476,28.142-71.244,64.125h-8.912
			c-4.15,0-7.515,3.365-7.515,7.515v32.063c0,4.15,3.365,7.515,7.515,7.515h8.517v25.049H7.515c-4.15,0-7.515,3.365-7.515,7.515V256
			c0,21.823,17.755,39.577,39.577,39.577h24.548v96.689c0,39.502,32.138,71.64,71.64,71.64h240.47
			c39.502,0,71.64-32.138,71.64-71.64v-96.689h24.548C494.245,295.577,512,277.823,512,256v-16.031
			C512,235.819,508.635,232.454,504.485,232.454z M64.125,280.548H39.577c-13.535,0-24.548-11.012-24.548-24.548v-8.517h49.096
			V280.548z M432.845,392.266c0,31.215-25.396,56.611-56.611,56.611h-240.47c-31.215,0-56.611-25.396-56.611-56.611V207.405h353.691
			V392.266z M63.123,192.376v-17.033H348.18c4.15,0,7.515-3.365,7.515-7.515c0-4.15-3.365-7.515-7.515-7.515H79.669
			c3.689-27.673,27.431-49.096,56.097-49.096h240.47c28.666,0,52.407,21.423,56.097,49.096h-48.415c-4.15,0-7.515,3.365-7.515,7.515
			c0,4.15,3.365,7.515,7.515,7.515h64.96v17.033H63.123z M496.971,256c0,13.535-11.013,24.548-24.548,24.548h-24.548v-33.065h49.096
			V256z"/>
	</g>
</g>
<g>
	<g>
		<path d="M256,48.094c-12.983,0-23.546,10.563-23.546,23.546c0,12.983,10.563,23.546,23.546,23.546s23.546-10.563,23.546-23.546
			C279.546,58.657,268.983,48.094,256,48.094z M256,80.157c-4.696,0-8.517-3.82-8.517-8.517s3.82-8.517,8.517-8.517
			s8.517,3.82,8.517,8.517S260.696,80.157,256,80.157z"/>
	</g>
</g>
<g>
	<g>
		<path d="M352.963,272.698c-0.069-0.139-0.134-0.28-0.212-0.416c-0.107-0.186-0.225-0.362-0.346-0.534
			c-9.694-16.508-23.504-30.318-40.012-40.012c-0.172-0.12-0.348-0.237-0.533-0.345c-0.136-0.079-0.276-0.143-0.416-0.213
			c-16.349-9.384-35.281-14.755-55.444-14.755s-39.095,5.371-55.442,14.755c-0.139,0.069-0.28,0.134-0.417,0.213
			c-0.185,0.107-0.361,0.225-0.533,0.345c-16.508,9.694-30.318,23.504-40.012,40.012c-0.12,0.173-0.238,0.349-0.346,0.534
			c-0.078,0.136-0.143,0.277-0.212,0.416c-9.385,16.347-14.756,35.28-14.756,55.443c0,20.163,5.37,39.096,14.755,55.443
			c0.069,0.139,0.134,0.28,0.212,0.416c0.075,0.13,0.166,0.244,0.247,0.369c9.699,16.582,23.546,30.451,40.11,40.177
			c0.172,0.12,0.348,0.237,0.533,0.345c0.096,0.055,0.196,0.094,0.294,0.144c16.376,9.428,35.353,14.824,55.567,14.824
			s39.191-5.396,55.566-14.823c0.097-0.051,0.197-0.089,0.294-0.144c0.185-0.107,0.361-0.225,0.533-0.345
			c16.563-9.726,30.411-23.595,40.11-40.177c0.081-0.124,0.172-0.238,0.247-0.369c0.078-0.136,0.143-0.277,0.212-0.416
			c9.385-16.348,14.756-35.281,14.756-55.444C367.718,307.978,362.348,289.045,352.963,272.698z M336.157,335.656h16.242
			c-0.939,12.153-4.135,23.682-9.168,34.171l-14.056-8.116c-3.595-2.076-8.19-0.845-10.265,2.75
			c-2.075,3.594-0.844,8.19,2.75,10.265l14.031,8.101c-6.733,9.785-15.22,18.272-25.003,25.006l-8.101-14.031
			c-2.075-3.594-6.671-4.825-10.265-2.75c-3.594,2.075-4.825,6.671-2.75,10.265l8.116,14.056
			c-10.488,5.033-22.018,8.229-34.171,9.168v-16.243c0-4.15-3.365-7.515-7.515-7.515s-7.515,3.365-7.515,7.515v16.242
			c-12.153-0.939-23.682-4.135-34.171-9.168l8.116-14.056c2.075-3.594,0.844-8.19-2.75-10.265c-3.595-2.076-8.19-0.845-10.265,2.75
			l-8.101,14.031c-9.783-6.735-18.27-15.221-25.005-25.005l14.031-8.101c3.594-2.075,4.825-6.671,2.75-10.265
			c-2.075-3.595-6.671-4.826-10.265-2.75l-14.056,8.116c-5.033-10.488-8.229-22.018-9.168-34.171h16.242
			c4.15,0,7.515-3.365,7.515-7.515s-3.365-7.515-7.515-7.515h-16.242c0.939-12.153,4.135-23.682,9.168-34.171l14.056,8.116
			c3.833,2.214,8.871,0.546,10.644-3.499c1.517-3.46,0.139-7.63-3.129-9.518l-14.031-8.101c6.735-9.783,15.221-18.27,25.005-25.005
			l8.101,14.031c2.208,3.825,7.402,4.914,10.967,2.291c3.043-2.238,3.936-6.538,2.049-9.806l-8.116-14.056
			c10.488-5.033,22.018-8.229,34.171-9.168v16.242c0,4.15,3.365,7.515,7.515,7.515c4.15,0,7.515-3.365,7.515-7.515v-16.242
			c12.153,0.939,23.682,4.135,34.171,9.168l-8.116,14.056c-1.888,3.268-0.995,7.569,2.049,9.806
			c3.565,2.621,8.758,1.534,10.967-2.291l8.101-14.031c9.783,6.735,18.27,15.221,25.005,25.005l-14.031,8.101
			c-3.268,1.888-4.646,6.057-3.129,9.518c1.773,4.044,6.81,5.712,10.644,3.499l14.056-8.116c5.033,10.488,8.229,22.018,9.168,34.171
			h-16.246c-4.15,0-7.515,3.365-7.515,7.515S332.006,335.656,336.157,335.656z"/>
	</g>
</g>
<g>
	<g>
		<path d="M288.063,320.626h-24.548v-40.579c0-4.15-3.365-7.515-7.515-7.515s-7.515,3.365-7.515,7.515v48.094
			c0,4.15,3.365,7.515,7.515,7.515h32.063c4.15,0,7.515-3.365,7.515-7.515C295.577,323.991,292.213,320.626,288.063,320.626z"/>
	</g>
</g>
<g>
</g>
<g>
</g>
<g>
</g>
<g>
</g>
<g>
</g>
<g>
</g>
<g>
</g>
<g>
</g>
<g>
</g>
<g>
</g>
<g>
</g>
<g>
</g>
<g>
</g>
<g>
</g>
<g>
</g>
</svg>
